<?xml version="1.0" encoding="UTF-8" standalone="no"?>
<!-- Created with Inkscape (http://www.inkscape.org/) -->

<svg
   xmlns:dc="http://purl.org/dc/elements/1.1/"
   xmlns:cc="http://creativecommons.org/ns#"
   xmlns:rdf="http://www.w3.org/1999/02/22-rdf-syntax-ns#"
   xmlns:svg="http://www.w3.org/2000/svg"
   xmlns="http://www.w3.org/2000/svg"
   xmlns:sodipodi="http://sodipodi.sourceforge.net/DTD/sodipodi-0.dtd"
   xmlns:inkscape="http://www.inkscape.org/namespaces/inkscape"
   id="svg4141"
   version="1.1"
   inkscape:version="0.91+devel+osxmenu r12913"
   width="882.66669"
   height="260"
   viewBox="0 0 882.66669 260"
   sodipodi:docname="LOGO BUENO.svg">
  <metadata
     id="metadata4147">
    <rdf:RDF>
      <cc:Work
         rdf:about="">
        <dc:format>image/svg+xml</dc:format>
        <dc:type
           rdf:resource="http://purl.org/dc/dcmitype/StillImage" />
        <dc:title></dc:title>
      </cc:Work>
    </rdf:RDF>
  </metadata>
  <defs
     id="defs4145" />
  <sodipodi:namedview
     pagecolor="#ffffff"
     bordercolor="#666666"
     borderopacity="1"
     objecttolerance="10"
     gridtolerance="10"
     guidetolerance="10"
     inkscape:pageopacity="0"
     inkscape:pageshadow="2"
     inkscape:window-width="2560"
     inkscape:window-height="1311"
     id="namedview4143"
     inkscape:document-units="px"
     showgrid="false"
     inkscape:zoom="0.79191841"
     inkscape:cx="956.41331"
     inkscape:cy="229.28639"
     inkscape:window-x="0"
     inkscape:window-y="23"
     inkscape:window-maximized="0"
     inkscape:current-layer="svg4141" />
  <g
     id="g4220"
     transform="translate(29.043396,-213.9989)">
    <path
       id="path4215"
       d="m 1.6660194,341.88031 0.341611,-102.33333 17.9999996,0 18.000001,0 0.34161,102.33333 0.341611,102.33333 -18.683222,0 -18.6832216,0 0.341611,-102.33333 z"
       style="fill:#4d6df3;fill-opacity:1;stroke-width:1.33333337"
       inkscape:connector-curvature="0" />
    <path
       id="path4213"
       d="m 48.302264,413.37467 0.372034,-17.50564 37.543751,-25.85971 37.543761,-25.8597 22.81206,0.36534 22.81209,0.36535 -59.92711,43 c -32.959921,23.65 -60.287458,43 -60.72787,43 -0.440412,0 -0.633334,-7.87753 -0.428716,-17.50564 z"
       style="fill:#99d9ea;fill-opacity:1;stroke-width:1.33333337"
       inkscape:connector-curvature="0" />
    <path
       d="m 614.67431,358.21364 0,-32.66666 10.66667,0 10.66667,0 0,3.33333 c 0,1.83333 0.31286,3.33333 0.69525,3.33333 0.38239,0 3.0424,-1.55327 5.91115,-3.45171 3.57348,-2.36482 7.65798,-3.65483 12.97141,-4.09677 6.34953,-0.52812 8.82537,-0.0837 13.65687,2.45171 3.62775,1.90369 6.83831,4.88667 8.33333,7.74264 2.10884,4.02855 2.43199,8.05905 2.43199,30.33333 l 0,25.68747 -10.66667,0 -10.66667,0 0,-21.74516 c 0,-15.32197 -0.4936,-22.4202 -1.67104,-24.03044 -0.91906,-1.25691 -3.79762,-2.63039 -6.39677,-3.05217 -2.89965,-0.47055 -6.63331,0.0301 -9.66229,1.29574 l -4.93656,2.06263 0,22.73469 0,22.73471 -10.66667,0 -10.66667,0 z M 263.7008,345.45415 c 2.61365,-0.91112 4.88362,-3.09629 6.28561,-6.05077 1.82133,-3.83818 1.92823,-5.43149 0.62856,-9.36954 -1.12592,-3.41155 -2.82431,-5.27069 -6.04383,-6.6159 -2.46282,-1.02903 -7.79713,-1.87096 -11.85401,-1.87096 l -7.37616,0 0,12.66666 0,12.66667 7.13437,0 c 3.9239,0 8.97536,-0.64177 11.22546,-1.42616 z m -39.69316,1.89271 0,-42.5864 23.66666,-0.14315 c 13.02394,-0.0788 25.93307,1.46494 28.70311,2.27286 2.77005,0.80792 7.20943,3.37684 9.86528,5.70871 2.65585,2.33187 5.63946,6.17987 6.63023,8.55111 0.99076,2.37123 1.78821,7.48061 1.77211,11.35416 -0.0165,3.96447 -1.1153,9.43418 -2.51391,12.51388 -1.36654,3.00908 -4.20336,7.09835 -6.30404,9.08727 -2.1007,1.98892 -5.61944,4.60949 -7.81944,5.82348 -2.6853,1.48178 -8.60147,2.43913 -18,2.91273 l -14,0.70547 -0.37998,13.66666 -0.37998,13.66667 -10.62002,0 -10.62002,0 z m 564.48896,42.30937 c -2.29774,-1.40109 -5.14774,-3.93236 -6.33334,-5.62503 -1.7569,-2.50833 -2.15561,-6.84528 -2.15561,-23.44757 l 0,-20.36999 -4.66667,0 -4.66666,0 0,-7.33333 0,-7.33333 4.66666,0 4.66667,0 0,-9.33334 0,-9.33333 10,0 10,0 0,9.33333 0,9.33334 10,0 10,0 0,7.33333 0,7.33333 -10.1371,0 -10.1371,0 0.47043,16.78486 c 0.44655,15.93256 0.63641,16.91922 3.73915,19.4313 2.46056,1.99216 4.37946,2.43808 7.76136,1.80364 2.47094,-0.46356 5.35002,-1.17184 6.39794,-1.57396 1.50922,-0.57914 1.90532,0.79343 1.90532,6.60219 0,5.45705 -0.53961,7.5404 -2.10905,8.14265 -1.15997,0.44514 -7.30997,0.80708 -13.66667,0.80434 -9.02443,-0.004 -12.47328,-0.56334 -15.73533,-2.55243 z m -45.82228,-40.71319 c 0,-1.06549 -0.66616,-3.39933 -1.48036,-5.1863 -0.8142,-1.78697 -2.94244,-3.9152 -4.7294,-4.7294 -1.78698,-0.8142 -4.75062,-1.48036 -6.58586,-1.48036 -1.83525,0 -5.04197,0.88177 -7.12604,1.95948 -2.11953,1.09606 -4.44045,3.82759 -5.26712,6.19897 -0.81284,2.33171 -1.47789,4.44995 -1.47789,4.70717 0,0.25724 6,0.46771 13.33333,0.46771 10.77106,0 13.33334,-0.37228 13.33334,-1.93727 z m -23.10356,42.69376 c -3.5403,-0.9516 -8.9403,-3.48774 -12,-5.63588 -3.05971,-2.14813 -6.97235,-6.45496 -8.69476,-9.57072 -1.83338,-3.31649 -3.42903,-8.9444 -3.84895,-13.57534 -0.42144,-4.6478 -0.0133,-10.42451 0.98948,-14.00626 0.93872,-3.35277 3.317,-8.31722 5.28508,-11.03212 1.96809,-2.71489 6.77232,-6.67274 10.67608,-8.79521 5.12845,-2.78834 9.56693,-4.03572 15.99713,-4.49579 5.90339,-0.42239 11.34107,0.0731 16.15222,1.4717 4.6421,1.3495 8.7596,3.6877 11.43882,6.49579 2.30231,2.41304 5.14358,7.25831 6.31391,10.76727 1.17033,3.50896 2.12788,9.35896 2.12788,13 l 0,6.62007 -24,0 c -13.2,0 -24,0.31927 -24,0.70949 0,0.39022 0.85273,2.75038 1.89496,5.24478 1.09696,2.6254 3.76404,5.53889 6.33333,6.91849 2.99034,1.60567 7.26594,2.37091 13.10504,2.34551 6.52591,-0.0284 10.60022,-0.92454 16.49446,-3.62799 4.30529,-1.97465 8.0827,-3.59028 8.39425,-3.59028 0.31156,0 0.38905,4.05 0.17221,9 l -0.39425,9 -8.66667,2.24237 c -4.76666,1.2333 -12.86666,2.2428 -18,2.24334 -5.13333,5.3e-4 -12.22993,-0.7776 -15.77022,-1.72922 z M 572.59349,376.28072 c 1.3771,-1.1429 2.08082,-3.97828 2.08082,-8.38397 l 0,-6.65704 -7.66666,0.92776 c -4.21667,0.51027 -9.00715,1.787 -10.6455,2.83717 -1.63836,1.05018 -3.35948,3.42599 -3.82469,5.27959 -0.58305,2.32304 -0.0724,4.22483 1.64337,6.12077 2.06628,2.28322 3.66528,2.65306 9.41054,2.17662 3.8067,-0.31568 7.85766,-1.35108 9.00212,-2.3009 z m -29.31862,15.39079 c -2.23635,-0.97409 -5.68652,-3.69685 -7.66705,-6.05057 -1.98052,-2.35372 -3.97492,-5.76948 -4.43199,-7.59059 -0.45707,-1.82111 -0.51776,-5.64677 -0.13485,-8.50147 0.38289,-2.8547 1.94008,-6.93729 3.46042,-9.07241 1.52035,-2.13512 5.63502,-5.11701 9.14371,-6.62641 3.5087,-1.5094 11.65964,-3.32456 18.1132,-4.03371 6.45356,-0.70913 12.05454,-1.61013 12.44662,-2.00221 0.39208,-0.39208 0.33357,-1.90794 -0.13,-3.36858 -0.4636,-1.46063 -2.70791,-3.30585 -4.98738,-4.10048 -2.27948,-0.79462 -6.95961,-1.44477 -10.40029,-1.44477 -3.44069,0 -9.20116,0.89351 -12.80104,1.98557 -3.59988,1.09206 -7.29524,1.99206 -8.21191,2 -1.14593,0.01 -1.66667,-2.43416 -1.66667,-7.82257 l 0,-7.837 10.7895,-1.67844 c 6.05448,-0.94185 15.46984,-1.35764 21.45445,-0.94745 7.45532,0.511 12.4872,1.6693 16.71986,3.84878 3.76293,1.9376 6.99769,4.87638 8.54554,7.76364 2.17846,4.0635 2.49066,7.78223 2.49066,29.66667 l 0,25.0208 -10.66667,0 c -9.47979,0 -10.66667,-0.27377 -10.66667,-2.46045 0,-2.23414 -0.69181,-2.1115 -7.52122,1.33333 -5.11906,2.58211 -9.484,3.77712 -13.66667,3.7416 -3.37999,-0.0287 -7.97519,-0.84917 -10.21155,-1.82328 z m -73.60056,-0.25056 -8.33333,-2.05829 0,-9.24118 c 0,-5.08264 0.2507,-9.24117 0.55712,-9.24117 0.30641,0 3.7191,1.58817 7.58374,3.52928 4.70011,2.36072 9.96184,3.73929 15.89159,4.16356 5.39065,0.38569 9.99548,0.0292 11.74959,-0.90952 1.58654,-0.84909 2.88462,-2.65851 2.88462,-4.02091 0,-1.36241 -1.05,-2.88006 -2.33333,-3.37257 -1.28333,-0.49251 -6.64189,-1.71987 -11.90791,-2.72745 -5.26601,-1.0076 -11.26601,-2.71183 -13.33333,-3.78718 -2.06732,-1.07534 -5.17825,-3.47482 -6.91319,-5.33217 -2.03014,-2.17339 -3.4068,-5.61611 -3.86253,-9.65933 -0.51291,-4.55048 -0.0537,-7.49748 1.66572,-10.69028 1.30561,-2.42437 4.68888,-5.93997 7.51837,-7.81244 2.82951,-1.87247 8.27656,-4.07619 12.10459,-4.89716 3.84851,-0.82536 11.15529,-1.14439 16.34416,-0.71364 5.16127,0.42847 11.63412,1.43366 14.38412,2.23376 l 5,1.45473 0,8.60399 c 0,4.7322 -0.15,8.60122 -0.33333,8.59782 -0.18334,-0.004 -3.93334,-1.48915 -8.33334,-3.30168 -4.52037,-1.86212 -10.71694,-3.30928 -14.24653,-3.32716 -3.4356,-0.0174 -7.7856,0.5535 -9.66667,1.26868 -1.88108,0.71518 -3.42013,2.14172 -3.42013,3.17008 0,1.02835 0.8034,2.5365 1.78533,3.35143 0.98194,0.81493 6.53194,2.45852 12.33334,3.65241 5.8014,1.19391 12.70634,3.26604 15.34433,4.60476 2.63797,1.33872 5.78797,3.9475 7,5.79727 1.28996,1.96875 2.20367,6.06511 2.20367,9.87963 0,4.5499 -0.90534,7.85974 -3,10.96786 -1.65,2.44831 -5.85554,5.92094 -9.34563,7.71696 -5.08593,2.61723 -8.79155,3.35408 -18.66667,3.71184 -8.04217,0.29135 -15.21505,-0.26844 -20.65437,-1.61193 z M 351.47788,346.56483 c -0.47471,-2.37351 -1.77113,-5.22351 -2.88096,-6.33333 -1.25068,-1.25068 -4.49353,-2.01786 -8.52948,-2.01786 -5.05645,0 -7.28055,0.72236 -9.95239,3.23242 -1.89241,1.77783 -3.44074,4.62784 -3.44074,6.33333 l 0,3.10092 12.83333,0 12.83333,0 z m -22.5738,45.1622 c -3.54029,-1.00123 -8.90751,-3.55681 -11.92715,-5.67909 -3.17786,-2.2335 -6.87806,-6.5555 -8.78532,-10.26166 -2.63212,-5.1147 -3.28302,-8.33142 -3.23517,-15.9878 0.0329,-5.27166 0.76649,-11.38484 1.63008,-13.58484 0.86359,-2.2 3.06153,-6.1682 4.88433,-8.81823 1.8228,-2.65002 6.39898,-6.49717 10.16926,-8.54922 5.09648,-2.77385 9.27241,-3.88455 16.27797,-4.32953 5.25159,-0.33358 12.06881,0.11686 15.39997,1.01753 3.86191,1.04418 7.93622,3.5752 11.51318,7.15217 3.2527,3.2527 6.14626,7.73402 7.01548,10.86502 0.81366,2.9309 1.48274,8.4654 1.48682,12.29885 l 0.008,6.96992 -23.85288,0.36341 -23.85288,0.36342 1.88944,4.73412 c 1.06488,2.66814 3.76456,5.84233 6.18622,7.27356 3.04562,1.8 6.82034,2.53653 12.96344,2.52945 6.5755,-0.008 10.55542,-0.87788 16.49445,-3.60689 4.30529,-1.9783 8.08271,-3.59691 8.39425,-3.59691 0.31156,0 0.38906,3.99183 0.17222,8.87072 l -0.39426,8.87073 -5.33333,1.89356 c -2.93333,1.04147 -11.03333,2.14974 -18,2.46284 -8.31279,0.3736 -14.87921,-0.0564 -19.10356,-1.25113 z m 70.66959,12.15328 c 2.63901,-6.05 4.76138,-11.9 4.71637,-13 -0.0451,-1.1 -5.52696,-15.79509 -12.18212,-32.65577 -6.65515,-16.86068 -12.10028,-31.13495 -12.10028,-31.7206 0,-0.58564 4.95,-0.89054 11,-0.67755 l 11,0.38725 7.30671,19.66667 c 4.01868,10.81667 7.68764,19.66667 8.15324,19.66667 0.46559,0 3.98887,-9 7.82951,-20 l 6.98298,-20 10.68596,0 c 9.88103,0 10.63552,0.19283 10.01651,2.55995 -0.36819,1.40797 -8.36797,21.50797 -17.77729,44.66666 l -17.10786,42.10672 -11.66097,0 -11.66098,0 z"
       style="fill:#2f3699;fill-opacity:1;stroke-width:1.33333337"
       id="path4189"
       inkscape:connector-curvature="0"
       sodipodi:nodetypes="ccccssssssscccssscccccccssssscccssccsssssssssccccccssscccccccccccccccccccsssssccsssssssssssssscssssssscsssssssscssssscsssssssssssssscssscscssssscsssssscsssscssssssssssscscsssssssssssssssssscccscssssssssssccccsscssscssccscssscssscssscccs" />
    <path
       id="path4185"
       d="m 85.007629,307.42376 -36.999998,-28.68377 0,-19.34186 c 0,-15.12484 0.363376,-19.12102 1.666667,-18.32892 0.916666,0.55713 28.268929,21.58204 60.168932,46.44919 31.9,24.86716 60.32954,47.83255 61.40336,48.85155 -6.03113,0.0781 -3.05725,0.0593 -24.11764,0.0139 l -24.61906,-0.0531 -37.502261,-28.907 z"
       style="fill:#2f3699;fill-opacity:1;stroke-width:1.33333337"
       inkscape:connector-curvature="0"
       sodipodi:nodetypes="ccsscccccc" />
  </g>
</svg>
