<?xml version="1.0" standalone="no"?>
 <!DOCTYPE svg PUBLIC "-//W3C//DTD SVG 1.1//EN" 
 "http://www.w3.org/Graphics/SVG/1.1/DTD/svg11.dtd"> 
<svg xmlns="http://www.w3.org/2000/svg" version="1.1" 
    width="5.91566cm" height="5.34162cm" viewBox="0 0 23290 21030 ">
<title>SVG Picture created as PCB-F.Mask.svg date 2016/05/04 10:53:41 </title>
  <desc>Picture generated by PCBNEW </desc>
<g style="fill:#000000; fill-opacity:1;stroke:#000000; stroke-opacity:1;
stroke-linecap:round; stroke-linejoin:round; "
 transform="translate(0 0) scale(1 1)">
</g>
<g style="fill:#000000; fill-opacity:0.0; 
stroke:#000000; stroke-width:-0.000393701; stroke-opacity:1; 
stroke-linecap:round; stroke-linejoin:round;">
</g>
<g style="fill:#000000; fill-opacity:0.0; 
stroke:#000000; stroke-width:39.3701; stroke-opacity:1; 
stroke-linecap:round; stroke-linejoin:round;">
<path d="M23272 19
L23272 21019
" />
<path d="M272 19
L23272 19
" />
<path d="M272 21019
L272 19
" />
<path d="M23272 21019
L272 21019
" />
</g>
<g style="fill:#000000; fill-opacity:1.0; 
stroke:#000000; stroke-width:3.93701; stroke-opacity:1; 
stroke-linecap:round; stroke-linejoin:round;">
<polyline style="fill-rule:evenodd;"
points="21192,10639
20842,10639
20842,8701
21192,8701
21192,10639
" /> 
<polyline style="fill-rule:evenodd;"
points="20402,9917
20754,10157
20754,10342
20754,10406
20754,10461
20753,10501
20752,10523
20752,10525
20741,10518
20712,10498
20667,10465
20606,10422
20533,10369
20448,10309
20354,10241
20252,10168
20171,10110
20065,10033
19965,9961
19873,9894
19791,9835
19721,9783
19664,9741
19623,9710
19599,9691
19593,9685
19604,9682
19637,9680
19687,9678
19751,9677
19821,9676
20050,9676
20402,9917
" /> 
<polyline style="fill-rule:evenodd;"
points="17050,9516
17158,9520
17224,9707
17248,9777
17266,9827
17281,9857
17294,9865
17307,9852
17323,9817
17345,9760
17373,9680
17374,9679
17433,9514
17538,9514
17588,9515
17624,9519
17641,9524
17642,9526
17638,9540
17626,9575
17607,9626
17582,9691
17554,9766
17528,9833
17413,10127
17454,10223
17480,10283
17495,10323
17499,10347
17489,10359
17465,10363
17424,10364
17397,10363
17286,10363
17131,9979
17093,9885
17057,9797
17025,9718
16998,9650
16976,9598
16963,9564
16958,9554
16942,9513
17050,9516
" /> 
<polyline style="fill-rule:evenodd;"
points="13905,9514
13942,9514
13964,9515
13975,9522
13979,9542
13980,9581
13980,9582
13979,9622
13975,9642
13964,9650
13944,9651
13907,9651
13903,9835
13900,9923
13894,9988
13885,10037
13871,10072
13851,10097
13824,10116
13816,10121
13781,10132
13730,10140
13670,10145
13610,10147
13559,10143
13558,10143
13535,10139
13523,10130
13518,10110
13517,10073
13517,10064
13517,9990
13588,9998
13627,10000
13655,9997
13673,9984
13684,9958
13690,9916
13692,9855
13692,9805
13692,9651
13517,9651
13517,9514
13692,9514
13692,9339
13905,9339
13905,9514
" /> 
<polyline style="fill-rule:evenodd;"
points="14411,9508
14455,9512
14488,9519
14516,9530
14524,9534
14596,9587
14649,9653
14681,9734
14692,9826
14683,9917
14658,9991
14615,10051
14552,10098
14531,10109
14497,10125
14464,10135
14425,10142
14373,10145
14331,10147
14249,10147
14181,10141
14141,10134
14104,10122
14076,10112
14069,10108
14062,10093
14057,10062
14055,10024
14056,9985
14059,9954
14064,9939
14066,9939
14082,9943
14114,9956
14148,9971
14192,9989
14230,9998
14274,10000
14311,9999
14378,9991
14426,9972
14458,9941
14479,9900
14491,9864
14039,9864
14045,9772
14050,9739
14246,9739
14363,9739
14418,9738
14452,9736
14471,9732
14479,9724
14480,9716
14469,9683
14439,9655
14397,9637
14361,9632
14308,9641
14270,9667
14252,9708
14246,9739
14050,9739
14058,9687
14085,9620
14129,9568
14167,9540
14196,9525
14223,9515
14256,9510
14301,9508
14349,9507
14411,9508
" /> 
<polyline style="fill-rule:evenodd;"
points="15995,9508
16055,9510
16103,9513
16133,9517
16180,9527
16180,9602
16179,9643
16172,9667
16156,9675
16125,9672
16075,9657
16075,9657
16006,9643
15942,9641
15886,9650
15845,9671
15829,9691
15820,9712
15820,9720
15834,9724
15867,9729
15913,9735
15943,9738
16042,9755
16119,9781
16175,9818
16211,9865
16228,9925
16230,9957
16219,10027
16189,10083
16140,10123
16075,10146
16016,10151
15945,10143
15885,10120
15851,10103
15827,10091
15821,10089
15818,10099
15817,10114
15815,10126
15806,10133
15784,10137
15744,10138
15717,10139
15616,10139
15619,9914
15817,9914
15819,9952
15825,9974
15841,9987
15858,9995
15915,10011
15966,10009
16004,9989
16006,9988
16022,9963
16025,9943
16018,9919
16017,9913
16006,9898
15976,9882
15932,9868
15883,9859
15817,9850
15817,9914
15619,9914
15620,9883
15621,9796
15623,9731
15625,9683
15629,9649
15633,9625
15640,9608
15648,9594
15649,9593
15679,9559
15714,9536
15760,9520
15820,9511
15899,9507
15930,9507
15995,9508
" /> 
<polyline style="fill-rule:evenodd;"
points="16638,9506
16727,9524
16799,9559
16826,9581
16854,9609
16869,9638
16876,9677
16877,9691
16876,9755
16858,9806
16822,9847
16767,9878
16689,9902
16660,9909
16596,9923
16554,9935
16529,9948
16519,9962
16517,9971
16529,9991
16559,10005
16603,10011
16655,10009
16712,10000
16769,9983
16798,9971
16844,9949
16872,9941
16887,9949
16891,9975
16890,10022
16890,10023
16886,10107
16836,10124
16796,10133
16739,10140
16673,10145
16605,10146
16543,10145
16494,10140
16478,10137
16415,10109
16364,10066
16328,10012
16311,9954
16314,9894
16316,9889
16333,9848
16358,9816
16396,9790
16449,9768
16522,9749
16571,9739
16613,9727
16648,9714
16662,9705
16673,9684
16664,9666
16638,9654
16601,9646
16555,9644
16507,9648
16459,9658
16421,9673
16377,9695
16350,9700
16336,9688
16331,9655
16330,9620
16330,9540
16377,9526
16412,9518
16462,9511
16518,9506
16531,9505
16638,9506
" /> 
<polyline style="fill-rule:evenodd;"
points="18067,9504
18137,9517
18198,9544
18233,9567
18288,9623
18327,9693
18349,9772
18353,9854
18340,9934
18308,10006
18286,10036
18240,10081
18188,10112
18125,10133
18046,10144
17992,10147
17900,10147
17830,10140
17799,10133
17761,10122
17735,10116
17727,10114
17722,10103
17719,10074
17718,10036
17718,9996
17720,9962
17724,9941
17726,9939
17741,9944
17771,9957
17792,9966
17844,9985
17907,9996
17971,10000
18027,9996
18056,9988
18094,9964
18125,9931
18141,9897
18142,9887
18141,9878
18134,9872
18119,9868
18092,9866
18049,9864
17988,9864
17922,9864
17702,9864
17708,9763
17711,9721
17905,9721
17911,9730
17930,9735
17968,9738
18024,9739
18084,9737
18124,9733
18142,9727
18142,9725
18131,9691
18102,9661
18061,9639
18016,9630
17991,9633
17959,9648
17928,9675
17909,9706
17905,9721
17711,9721
17712,9708
17719,9670
17732,9639
17750,9611
17795,9561
17851,9528
17922,9509
17980,9503
18067,9504
" /> 
<polyline style="fill-rule:evenodd;"
points="15109,9509
15150,9525
15171,9536
15242,9572
15242,9543
15244,9528
15251,9520
15269,9515
15304,9514
15342,9514
15442,9514
15442,10139
15242,10139
15242,9704
15192,9684
15142,9667
15106,9666
15076,9681
15061,9694
15049,9706
15041,9719
15036,9737
15032,9764
15031,9805
15030,9862
15030,9932
15030,10139
14815,10139
14819,9892
14821,9805
14823,9740
14826,9692
14830,9658
14835,9633
14842,9614
14849,9602
14886,9553
14931,9522
14991,9507
15021,9504
15070,9503
15109,9509
" /> 
<polyline style="fill-rule:evenodd;"
points="19117,10139
18892,10139
18892,9879
18777,9873
18672,9860
18587,9831
18522,9787
18476,9728
18450,9654
18446,9588
18667,9588
18676,9640
18704,9677
18751,9701
18818,9712
18839,9712
18892,9714
18892,9472
18809,9480
18744,9492
18700,9512
18675,9544
18667,9588
18446,9588
18444,9564
18444,9553
18455,9482
18479,9428
18521,9386
18579,9353
18605,9341
18629,9333
18656,9326
18690,9322
18736,9319
18798,9317
18880,9316
18883,9316
19117,9311
19117,10139
" /> 
<polyline style="fill-rule:evenodd;"
points="20747,8712
20751,8723
20753,8749
20754,8791
20755,8854
20755,8890
20755,9082
20402,9354
20049,9626
19820,9626
19745,9625
19681,9624
19633,9621
19603,9618
19595,9615
19605,9605
19633,9582
19678,9546
19737,9499
19808,9442
19891,9377
19982,9305
20081,9228
20155,9170
20258,9089
20356,9012
20447,8941
20529,8878
20599,8822
20657,8777
20699,8743
20726,8722
20733,8716
20741,8710
20747,8712
" /> 
</g>
<g style="fill:#000000; fill-opacity:1.0; 
stroke:#000000; stroke-width:0; stroke-opacity:1; 
stroke-linecap:round; stroke-linejoin:round;">
<polyline style="fill-rule:evenodd;"
points="2314,17570
2314,16732
3271,16732
3271,17570
2314,17570
" /> 
</g>
<g style="fill:#000000; fill-opacity:1.0; 
stroke:#000000; stroke-width:837.48; stroke-opacity:1; 
stroke-linecap:round; stroke-linejoin:round;">
</g>
<g style="fill:#000000; fill-opacity:0.0; 
stroke:#000000; stroke-width:837.48; stroke-opacity:1; 
stroke-linecap:round; stroke-linejoin:round;">
<path d="M2732 18151
L2852 18151
" />
<path d="M2732 19151
L2852 19151
" />
</g>
<g style="fill:#000000; fill-opacity:0.0; 
stroke:#000000; stroke-width:0; stroke-opacity:1; 
stroke-linecap:round; stroke-linejoin:round;">
</g>
<g style="fill:#000000; fill-opacity:1.0; 
stroke:#000000; stroke-width:0; stroke-opacity:1; 
stroke-linecap:round; stroke-linejoin:round;">
<polyline style="fill-rule:evenodd;"
points="7607,5454
6938,5454
6938,4785
7607,4785
7607,5454
" /> 
<circle cx="7272.91" cy="3151.55" r="334.646" /> 
</g>
<g style="fill:#000000; fill-opacity:1.0; 
stroke:#000000; stroke-width:39.3701; stroke-opacity:1; 
stroke-linecap:round; stroke-linejoin:round;">
</g>
<g style="fill:#000000; fill-opacity:1.0; 
stroke:#000000; stroke-width:0; stroke-opacity:1; 
stroke-linecap:round; stroke-linejoin:round;">
<circle cx="18772.9" cy="17650.5" r="413.24" /> 
</g>
<g style="fill:#000000; fill-opacity:1.0; 
stroke:#000000; stroke-width:39.3701; stroke-opacity:1; 
stroke-linecap:round; stroke-linejoin:round;">
</g>
<g style="fill:#000000; fill-opacity:1.0; 
stroke:#000000; stroke-width:0; stroke-opacity:1; 
stroke-linecap:round; stroke-linejoin:round;">
<polyline style="fill-rule:evenodd;"
points="15186,17237
15186,18063
14359,18063
14359,17237
15186,17237
" /> 
<polyline style="fill-rule:evenodd;"
points="2314,8570
2314,7732
3271,7732
3271,8570
2314,8570
" /> 
</g>
<g style="fill:#000000; fill-opacity:1.0; 
stroke:#000000; stroke-width:837.48; stroke-opacity:1; 
stroke-linecap:round; stroke-linejoin:round;">
</g>
<g style="fill:#000000; fill-opacity:0.0; 
stroke:#000000; stroke-width:837.48; stroke-opacity:1; 
stroke-linecap:round; stroke-linejoin:round;">
<path d="M2732 9151
L2852 9151
" />
<path d="M2732 10151
L2852 10151
" />
</g>
<g style="fill:#000000; fill-opacity:0.0; 
stroke:#000000; stroke-width:0; stroke-opacity:1; 
stroke-linecap:round; stroke-linejoin:round;">
</g>
<g style="fill:#000000; fill-opacity:1.0; 
stroke:#000000; stroke-width:0; stroke-opacity:1; 
stroke-linecap:round; stroke-linejoin:round;">
<polyline style="fill-rule:evenodd;"
points="2314,13070
2314,12232
3271,12232
3271,13070
2314,13070
" /> 
</g>
<g style="fill:#000000; fill-opacity:1.0; 
stroke:#000000; stroke-width:837.48; stroke-opacity:1; 
stroke-linecap:round; stroke-linejoin:round;">
</g>
<g style="fill:#000000; fill-opacity:0.0; 
stroke:#000000; stroke-width:837.48; stroke-opacity:1; 
stroke-linecap:round; stroke-linejoin:round;">
<path d="M2732 13651
L2852 13651
" />
<path d="M2732 14651
L2852 14651
" />
</g>
<g style="fill:#000000; fill-opacity:0.0; 
stroke:#000000; stroke-width:0; stroke-opacity:1; 
stroke-linecap:round; stroke-linejoin:round;">
</g>
<g style="fill:#000000; fill-opacity:1.0; 
stroke:#000000; stroke-width:0; stroke-opacity:1; 
stroke-linecap:round; stroke-linejoin:round;">
<polyline style="fill-rule:evenodd;"
points="12734,1497
13771,1497
13771,2534
12734,2534
12734,1497
" /> 
<polyline style="fill-rule:evenodd;"
points="19506,1497
20543,1497
20543,2534
19506,2534
19506,1497
" /> 
<polyline style="fill-rule:evenodd;"
points="12734,17103
13771,17103
13771,18140
12734,18140
12734,17103
" /> 
<polyline style="fill-rule:evenodd;"
points="12734,19132
13771,19132
13771,20170
12734,20170
12734,19132
" /> 
<polyline style="fill-rule:evenodd;"
points="19506,17103
20543,17103
20543,18140
19506,18140
19506,17103
" /> 
<polyline style="fill-rule:evenodd;"
points="19506,19132
20543,19132
20543,20170
19506,20170
19506,19132
" /> 
<circle cx="5792.93" cy="15651.5" r="378.74" /> 
</g>
<g style="fill:#000000; fill-opacity:1.0; 
stroke:#000000; stroke-width:39.3701; stroke-opacity:1; 
stroke-linecap:round; stroke-linejoin:round;">
</g>
<g style="fill:#000000; fill-opacity:1.0; 
stroke:#000000; stroke-width:0; stroke-opacity:1; 
stroke-linecap:round; stroke-linejoin:round;">
<circle cx="7792.93" cy="15651.5" r="378.74" /> 
</g>
<g style="fill:#000000; fill-opacity:1.0; 
stroke:#000000; stroke-width:39.3701; stroke-opacity:1; 
stroke-linecap:round; stroke-linejoin:round;">
</g>
<g style="fill:#000000; fill-opacity:1.0; 
stroke:#000000; stroke-width:0; stroke-opacity:1; 
stroke-linecap:round; stroke-linejoin:round;">
<circle cx="6792.93" cy="15651.5" r="378.74" /> 
</g>
<g style="fill:#000000; fill-opacity:1.0; 
stroke:#000000; stroke-width:39.3701; stroke-opacity:1; 
stroke-linecap:round; stroke-linejoin:round;">
</g>
<g style="fill:#000000; fill-opacity:1.0; 
stroke:#000000; stroke-width:0; stroke-opacity:1; 
stroke-linecap:round; stroke-linejoin:round;">
<polyline style="fill-rule:evenodd;"
points="2314,4630
2314,3672
3271,3672
3271,4630
2314,4630
" /> 
</g>
<g style="fill:#000000; fill-opacity:1.0; 
stroke:#000000; stroke-width:957.48; stroke-opacity:1; 
stroke-linecap:round; stroke-linejoin:round;">
</g>
<g style="fill:#000000; fill-opacity:0.0; 
stroke:#000000; stroke-width:957.48; stroke-opacity:1; 
stroke-linecap:round; stroke-linejoin:round;">
<path d="M2792 5151
L2792 5151
" />
</g>
<g style="fill:#000000; fill-opacity:1.0; 
stroke:#000000; stroke-width:0; stroke-opacity:1; 
stroke-linecap:round; stroke-linejoin:round;">
<circle cx="4272.91" cy="8019.69" r="378.74" /> 
</g>
<g style="fill:#000000; fill-opacity:1.0; 
stroke:#000000; stroke-width:39.3701; stroke-opacity:1; 
stroke-linecap:round; stroke-linejoin:round;">
</g>
<g style="fill:#000000; fill-opacity:1.0; 
stroke:#000000; stroke-width:0; stroke-opacity:1; 
stroke-linecap:round; stroke-linejoin:round;">
<circle cx="4272.91" cy="9019.69" r="378.74" /> 
</g>
<g style="fill:#000000; fill-opacity:1.0; 
stroke:#000000; stroke-width:39.3701; stroke-opacity:1; 
stroke-linecap:round; stroke-linejoin:round;">
</g>
<g style="fill:#000000; fill-opacity:1.0; 
stroke:#000000; stroke-width:0; stroke-opacity:1; 
stroke-linecap:round; stroke-linejoin:round;">
<circle cx="4272.91" cy="10019.7" r="378.74" /> 
</g>
<g style="fill:#000000; fill-opacity:1.0; 
stroke:#000000; stroke-width:39.3701; stroke-opacity:1; 
stroke-linecap:round; stroke-linejoin:round;">
</g>
<g style="fill:#000000; fill-opacity:1.0; 
stroke:#000000; stroke-width:0; stroke-opacity:1; 
stroke-linecap:round; stroke-linejoin:round;">
<circle cx="4272.91" cy="11019.7" r="378.74" /> 
</g>
<g style="fill:#000000; fill-opacity:1.0; 
stroke:#000000; stroke-width:39.3701; stroke-opacity:1; 
stroke-linecap:round; stroke-linejoin:round;">
</g>
<g style="fill:#000000; fill-opacity:1.0; 
stroke:#000000; stroke-width:0; stroke-opacity:1; 
stroke-linecap:round; stroke-linejoin:round;">
<circle cx="4272.91" cy="12019.7" r="378.74" /> 
</g>
<g style="fill:#000000; fill-opacity:1.0; 
stroke:#000000; stroke-width:39.3701; stroke-opacity:1; 
stroke-linecap:round; stroke-linejoin:round;">
</g>
<g style="fill:#000000; fill-opacity:1.0; 
stroke:#000000; stroke-width:0; stroke-opacity:1; 
stroke-linecap:round; stroke-linejoin:round;">
<circle cx="4272.91" cy="13019.7" r="378.74" /> 
</g>
<g style="fill:#000000; fill-opacity:1.0; 
stroke:#000000; stroke-width:39.3701; stroke-opacity:1; 
stroke-linecap:round; stroke-linejoin:round;">
</g>
<g style="fill:#000000; fill-opacity:1.0; 
stroke:#000000; stroke-width:0; stroke-opacity:1; 
stroke-linecap:round; stroke-linejoin:round;">
<circle cx="4272.91" cy="14019.7" r="378.74" /> 
</g>
<g style="fill:#000000; fill-opacity:1.0; 
stroke:#000000; stroke-width:39.3701; stroke-opacity:1; 
stroke-linecap:round; stroke-linejoin:round;">
</g>
<g style="fill:#000000; fill-opacity:1.0; 
stroke:#000000; stroke-width:0; stroke-opacity:1; 
stroke-linecap:round; stroke-linejoin:round;">
<circle cx="4272.91" cy="15019.7" r="378.74" /> 
</g>
<g style="fill:#000000; fill-opacity:1.0; 
stroke:#000000; stroke-width:39.3701; stroke-opacity:1; 
stroke-linecap:round; stroke-linejoin:round;">
</g>
<g style="fill:#000000; fill-opacity:1.0; 
stroke:#000000; stroke-width:0; stroke-opacity:1; 
stroke-linecap:round; stroke-linejoin:round;">
<circle cx="4272.91" cy="16019.7" r="378.74" /> 
</g>
<g style="fill:#000000; fill-opacity:1.0; 
stroke:#000000; stroke-width:39.3701; stroke-opacity:1; 
stroke-linecap:round; stroke-linejoin:round;">
</g>
<g style="fill:#000000; fill-opacity:1.0; 
stroke:#000000; stroke-width:0; stroke-opacity:1; 
stroke-linecap:round; stroke-linejoin:round;">
<circle cx="4272.91" cy="17019.7" r="378.74" /> 
</g>
<g style="fill:#000000; fill-opacity:1.0; 
stroke:#000000; stroke-width:39.3701; stroke-opacity:1; 
stroke-linecap:round; stroke-linejoin:round;">
</g>
<g style="fill:#000000; fill-opacity:1.0; 
stroke:#000000; stroke-width:0; stroke-opacity:1; 
stroke-linecap:round; stroke-linejoin:round;">
<circle cx="4272.91" cy="18019.7" r="378.74" /> 
</g>
<g style="fill:#000000; fill-opacity:1.0; 
stroke:#000000; stroke-width:39.3701; stroke-opacity:1; 
stroke-linecap:round; stroke-linejoin:round;">
</g>
<g style="fill:#000000; fill-opacity:1.0; 
stroke:#000000; stroke-width:0; stroke-opacity:1; 
stroke-linecap:round; stroke-linejoin:round;">
<circle cx="4272.91" cy="19019.7" r="378.74" /> 
</g>
<g style="fill:#000000; fill-opacity:1.0; 
stroke:#000000; stroke-width:39.3701; stroke-opacity:1; 
stroke-linecap:round; stroke-linejoin:round;">
</g>
<g style="fill:#000000; fill-opacity:1.0; 
stroke:#000000; stroke-width:0; stroke-opacity:1; 
stroke-linecap:round; stroke-linejoin:round;">
<circle cx="10272.9" cy="8019.69" r="378.74" /> 
</g>
<g style="fill:#000000; fill-opacity:1.0; 
stroke:#000000; stroke-width:39.3701; stroke-opacity:1; 
stroke-linecap:round; stroke-linejoin:round;">
</g>
<g style="fill:#000000; fill-opacity:1.0; 
stroke:#000000; stroke-width:0; stroke-opacity:1; 
stroke-linecap:round; stroke-linejoin:round;">
<circle cx="10272.9" cy="9019.69" r="378.74" /> 
</g>
<g style="fill:#000000; fill-opacity:1.0; 
stroke:#000000; stroke-width:39.3701; stroke-opacity:1; 
stroke-linecap:round; stroke-linejoin:round;">
</g>
<g style="fill:#000000; fill-opacity:1.0; 
stroke:#000000; stroke-width:0; stroke-opacity:1; 
stroke-linecap:round; stroke-linejoin:round;">
<circle cx="10272.9" cy="10019.7" r="378.74" /> 
</g>
<g style="fill:#000000; fill-opacity:1.0; 
stroke:#000000; stroke-width:39.3701; stroke-opacity:1; 
stroke-linecap:round; stroke-linejoin:round;">
</g>
<g style="fill:#000000; fill-opacity:1.0; 
stroke:#000000; stroke-width:0; stroke-opacity:1; 
stroke-linecap:round; stroke-linejoin:round;">
<circle cx="10272.9" cy="11019.7" r="378.74" /> 
</g>
<g style="fill:#000000; fill-opacity:1.0; 
stroke:#000000; stroke-width:39.3701; stroke-opacity:1; 
stroke-linecap:round; stroke-linejoin:round;">
</g>
<g style="fill:#000000; fill-opacity:1.0; 
stroke:#000000; stroke-width:0; stroke-opacity:1; 
stroke-linecap:round; stroke-linejoin:round;">
<circle cx="10272.9" cy="12019.7" r="378.74" /> 
</g>
<g style="fill:#000000; fill-opacity:1.0; 
stroke:#000000; stroke-width:39.3701; stroke-opacity:1; 
stroke-linecap:round; stroke-linejoin:round;">
</g>
<g style="fill:#000000; fill-opacity:1.0; 
stroke:#000000; stroke-width:0; stroke-opacity:1; 
stroke-linecap:round; stroke-linejoin:round;">
<circle cx="10272.9" cy="13019.7" r="378.74" /> 
</g>
<g style="fill:#000000; fill-opacity:1.0; 
stroke:#000000; stroke-width:39.3701; stroke-opacity:1; 
stroke-linecap:round; stroke-linejoin:round;">
</g>
<g style="fill:#000000; fill-opacity:1.0; 
stroke:#000000; stroke-width:0; stroke-opacity:1; 
stroke-linecap:round; stroke-linejoin:round;">
<circle cx="10272.9" cy="14019.7" r="378.74" /> 
</g>
<g style="fill:#000000; fill-opacity:1.0; 
stroke:#000000; stroke-width:39.3701; stroke-opacity:1; 
stroke-linecap:round; stroke-linejoin:round;">
</g>
<g style="fill:#000000; fill-opacity:1.0; 
stroke:#000000; stroke-width:0; stroke-opacity:1; 
stroke-linecap:round; stroke-linejoin:round;">
<circle cx="10272.9" cy="15019.7" r="378.74" /> 
</g>
<g style="fill:#000000; fill-opacity:1.0; 
stroke:#000000; stroke-width:39.3701; stroke-opacity:1; 
stroke-linecap:round; stroke-linejoin:round;">
</g>
<g style="fill:#000000; fill-opacity:1.0; 
stroke:#000000; stroke-width:0; stroke-opacity:1; 
stroke-linecap:round; stroke-linejoin:round;">
<circle cx="10272.9" cy="16019.7" r="378.74" /> 
</g>
<g style="fill:#000000; fill-opacity:1.0; 
stroke:#000000; stroke-width:39.3701; stroke-opacity:1; 
stroke-linecap:round; stroke-linejoin:round;">
</g>
<g style="fill:#000000; fill-opacity:1.0; 
stroke:#000000; stroke-width:0; stroke-opacity:1; 
stroke-linecap:round; stroke-linejoin:round;">
<circle cx="10272.9" cy="17019.7" r="378.74" /> 
</g>
<g style="fill:#000000; fill-opacity:1.0; 
stroke:#000000; stroke-width:39.3701; stroke-opacity:1; 
stroke-linecap:round; stroke-linejoin:round;">
</g>
<g style="fill:#000000; fill-opacity:1.0; 
stroke:#000000; stroke-width:0; stroke-opacity:1; 
stroke-linecap:round; stroke-linejoin:round;">
<circle cx="10272.9" cy="18019.7" r="378.74" /> 
</g>
<g style="fill:#000000; fill-opacity:1.0; 
stroke:#000000; stroke-width:39.3701; stroke-opacity:1; 
stroke-linecap:round; stroke-linejoin:round;">
</g>
<g style="fill:#000000; fill-opacity:1.0; 
stroke:#000000; stroke-width:0; stroke-opacity:1; 
stroke-linecap:round; stroke-linejoin:round;">
<circle cx="10272.9" cy="19019.7" r="378.74" /> 
</g>
<g style="fill:#000000; fill-opacity:1.0; 
stroke:#000000; stroke-width:39.3701; stroke-opacity:1; 
stroke-linecap:round; stroke-linejoin:round;">
</g>
<g style="fill:#000000; fill-opacity:1.0; 
stroke:#000000; stroke-width:0; stroke-opacity:1; 
stroke-linecap:round; stroke-linejoin:round;">
<circle cx="9122.91" cy="11469.7" r="374.016" /> 
</g>
<g style="fill:#000000; fill-opacity:1.0; 
stroke:#000000; stroke-width:39.3701; stroke-opacity:1; 
stroke-linecap:round; stroke-linejoin:round;">
</g>
<g style="fill:#000000; fill-opacity:1.0; 
stroke:#000000; stroke-width:0; stroke-opacity:1; 
stroke-linecap:round; stroke-linejoin:round;">
<circle cx="9122.91" cy="12469.7" r="374.016" /> 
</g>
<g style="fill:#000000; fill-opacity:1.0; 
stroke:#000000; stroke-width:39.3701; stroke-opacity:1; 
stroke-linecap:round; stroke-linejoin:round;">
</g>
<g style="fill:#000000; fill-opacity:1.0; 
stroke:#000000; stroke-width:0; stroke-opacity:1; 
stroke-linecap:round; stroke-linejoin:round;">
<circle cx="9122.91" cy="15569.7" r="374.016" /> 
</g>
<g style="fill:#000000; fill-opacity:1.0; 
stroke:#000000; stroke-width:39.3701; stroke-opacity:1; 
stroke-linecap:round; stroke-linejoin:round;">
</g>
<g style="fill:#000000; fill-opacity:1.0; 
stroke:#000000; stroke-width:0; stroke-opacity:1; 
stroke-linecap:round; stroke-linejoin:round;">
<circle cx="9122.91" cy="16569.7" r="374.016" /> 
</g>
<g style="fill:#000000; fill-opacity:1.0; 
stroke:#000000; stroke-width:39.3701; stroke-opacity:1; 
stroke-linecap:round; stroke-linejoin:round;">
</g> 
</svg>
