<?xml version="1.0" standalone="no"?>
 <!DOCTYPE svg PUBLIC "-//W3C//DTD SVG 1.1//EN" 
 "http://www.w3.org/Graphics/SVG/1.1/DTD/svg11.dtd"> 
<svg xmlns="http://www.w3.org/2000/svg" version="1.1" 
    width="5.91566cm" height="5.34162cm" viewBox="0 0 23290 21030 ">
<title>SVG Picture created as PCB-F.SilkS.svg date 2016/05/04 10:53:41 </title>
  <desc>Picture generated by PCBNEW </desc>
<g style="fill:#000000; fill-opacity:1;stroke:#000000; stroke-opacity:1;
stroke-linecap:round; stroke-linejoin:round; "
 transform="translate(0 0) scale(1 1)">
</g>
<g style="fill:#000000; fill-opacity:0.0; 
stroke:#000000; stroke-width:-0.000393701; stroke-opacity:1; 
stroke-linecap:round; stroke-linejoin:round;">
</g>
<g style="fill:#000000; fill-opacity:0.0; 
stroke:#000000; stroke-width:78.7402; stroke-opacity:1; 
stroke-linecap:round; stroke-linejoin:round;">
<path d="M10772 7519
L3772 7519
" />
<path d="M10772 20019
L10772 7519
" />
<path d="M3772 20019
L10772 20019
" />
<path d="M3772 7519
L3772 20019
" />
</g>
<g style="fill:#000000; fill-opacity:0.0; 
stroke:#000000; stroke-width:39.3701; stroke-opacity:1; 
stroke-linecap:round; stroke-linejoin:round;">
<path d="M23272 19
L23272 21019
" />
<path d="M272 19
L23272 19
" />
<path d="M272 21019
L272 19
" />
<path d="M23272 21019
L272 21019
" />
</g>
<g style="fill:#000000; fill-opacity:0.0; 
stroke:#000000; stroke-width:59.0551; stroke-opacity:1; 
stroke-linecap:round; stroke-linejoin:round;">
<path d="M2464 15935
L2464 16217
L2446 16273
L2408 16310
L2352 16329
L2314 16329
" />
<path d="M2652 16329
L2652 15935
L2802 15935
L2839 15954
L2858 15973
L2877 16010
L2877 16067
L2858 16104
L2839 16123
L2802 16142
L2652 16142
" />
<path d="M3008 15935
L3252 15935
L3121 16085
L3177 16085
L3214 16104
L3233 16123
L3252 16160
L3252 16254
L3233 16292
L3214 16310
L3177 16329
L3064 16329
L3027 16310
L3008 16292
" />
<path d="M7187 1160
L7168 1179
L7112 1197
L7074 1197
L7018 1179
L6981 1141
L6962 1104
L6943 1029
L6943 972
L6962 897
L6981 860
L7018 822
L7074 804
L7112 804
L7168 822
L7187 841
" />
<path d="M7562 1197
L7337 1197
" />
<path d="M7449 1197
L7449 804
L7412 860
L7374 897
L7337 916
" />
<path d="M6418 4435
L6418 4697
" />
<path d="M6324 4285
L6231 4566
L6474 4566
" />
<path d="M6587 4304
L6849 4304
L6681 4697
" />
<path d="M7074 4304
L7112 4304
L7149 4322
L7168 4341
L7187 4379
L7206 4454
L7206 4547
L7187 4622
L7168 4660
L7149 4679
L7112 4697
L7074 4697
L7037 4679
L7018 4660
L6999 4622
L6981 4547
L6981 4454
L6999 4379
L7018 4341
L7037 4322
L7074 4304
" />
<path d="M7449 4304
L7487 4304
L7524 4322
L7543 4341
L7562 4379
L7580 4454
L7580 4547
L7562 4622
L7543 4660
L7524 4679
L7487 4697
L7449 4697
L7412 4679
L7393 4660
L7374 4622
L7355 4547
L7355 4454
L7374 4379
L7393 4341
L7412 4322
L7449 4304
" />
<path d="M7918 4435
L7918 4697
" />
<path d="M7749 4435
L7749 4641
L7768 4679
L7805 4697
L7862 4697
L7899 4679
L7918 4660
" />
<path d="M8237 4491
L8105 4491
" />
<path d="M8105 4697
L8105 4304
L8293 4304
" />
<path d="M16482 17197
L16482 16804
L16576 16804
L16632 16822
L16669 16860
L16688 16897
L16707 16972
L16707 17029
L16688 17104
L16669 17141
L16632 17179
L16576 17197
L16482 17197
" />
<path d="M16857 16841
L16876 16822
L16913 16804
L17007 16804
L17044 16822
L17063 16841
L17082 16879
L17082 16916
L17063 16972
L16838 17197
L17082 17197
" />
<path d="M16255 17815
L16255 17539
L16413 17815
L16413 17539
" />
<path d="M16662 17631
L16662 17815
" />
<path d="M16596 17526
L16531 17723
L16701 17723
" />
<path d="M16859 17539
L16885 17539
L16911 17553
L16924 17566
L16938 17592
L16951 17644
L16951 17710
L16938 17763
L16924 17789
L16911 17802
L16885 17815
L16859 17815
L16833 17802
L16819 17789
L16806 17763
L16793 17710
L16793 17644
L16806 17592
L16819 17566
L16833 17553
L16859 17539
" />
<path d="M17121 17539
L17148 17539
L17174 17553
L17187 17566
L17200 17592
L17213 17644
L17213 17710
L17200 17763
L17187 17789
L17174 17802
L17148 17815
L17121 17815
L17095 17802
L17082 17789
L17069 17763
L17056 17710
L17056 17644
L17069 17592
L17082 17566
L17095 17553
L17121 17539
" />
<path d="M17305 17539
L17489 17539
L17371 17815
" />
<path d="M2464 6935
L2464 7217
L2446 7273
L2408 7310
L2352 7329
L2314 7329
" />
<path d="M2652 7329
L2652 6935
L2802 6935
L2839 6954
L2858 6973
L2877 7010
L2877 7067
L2858 7104
L2839 7123
L2802 7142
L2652 7142
" />
<path d="M3252 7329
L3027 7329
" />
<path d="M3139 7329
L3139 6935
L3102 6992
L3064 7029
L3027 7048
" />
<path d="M2464 11435
L2464 11717
L2446 11773
L2408 11810
L2352 11829
L2314 11829
" />
<path d="M2652 11829
L2652 11435
L2802 11435
L2839 11454
L2858 11473
L2877 11510
L2877 11567
L2858 11604
L2839 11623
L2802 11642
L2652 11642
" />
<path d="M3027 11473
L3046 11454
L3083 11435
L3177 11435
L3214 11454
L3233 11473
L3252 11510
L3252 11548
L3233 11604
L3008 11829
L3252 11829
" />
<path d="M12962 1193
L12962 800
L13112 800
L13150 818
L13168 837
L13187 875
L13187 931
L13168 968
L13150 987
L13112 1006
L12962 1006
" />
<path d="M13562 1193
L13337 1193
" />
<path d="M13450 1193
L13450 800
L13412 856
L13375 893
L13337 912
" />
<path d="M19734 1193
L19734 800
L19884 800
L19921 818
L19940 837
L19959 875
L19959 931
L19940 968
L19921 987
L19884 1006
L19734 1006
" />
<path d="M20109 837
L20127 818
L20165 800
L20259 800
L20296 818
L20315 837
L20334 875
L20334 912
L20315 968
L20090 1193
L20334 1193
" />
<path d="M12962 16800
L12962 16406
L13112 16406
L13150 16425
L13168 16443
L13187 16481
L13187 16537
L13168 16575
L13150 16593
L13112 16612
L12962 16612
" />
<path d="M13318 16406
L13562 16406
L13431 16556
L13487 16556
L13525 16575
L13543 16593
L13562 16631
L13562 16725
L13543 16762
L13525 16781
L13487 16800
L13375 16800
L13337 16781
L13318 16762
" />
<path d="M12962 18829
L12962 18435
L13112 18435
L13150 18454
L13168 18473
L13187 18510
L13187 18567
L13168 18604
L13150 18623
L13112 18642
L12962 18642
" />
<path d="M13525 18567
L13525 18829
" />
<path d="M13431 18417
L13337 18698
L13581 18698
" />
<path d="M14039 19679
L14339 19679
" />
<path d="M14189 19829
L14189 19529
" />
<path d="M14508 19473
L14526 19454
L14564 19435
L14658 19435
L14695 19454
L14714 19473
L14733 19510
L14733 19548
L14714 19604
L14489 19829
L14733 19829
" />
<path d="M15070 19567
L15070 19829
" />
<path d="M14976 19417
L14883 19698
L15126 19698
" />
<path d="M15220 19435
L15351 19829
L15483 19435
" />
<path d="M19734 16800
L19734 16406
L19884 16406
L19921 16425
L19940 16443
L19959 16481
L19959 16537
L19940 16575
L19921 16593
L19884 16612
L19734 16612
" />
<path d="M20315 16406
L20127 16406
L20109 16593
L20127 16575
L20165 16556
L20259 16556
L20296 16575
L20315 16593
L20334 16631
L20334 16725
L20315 16762
L20296 16781
L20259 16800
L20165 16800
L20127 16781
L20109 16762
" />
<path d="M19734 18829
L19734 18435
L19884 18435
L19921 18454
L19940 18473
L19959 18510
L19959 18567
L19940 18604
L19921 18623
L19884 18642
L19734 18642
" />
<path d="M20296 18435
L20221 18435
L20184 18454
L20165 18473
L20127 18529
L20109 18604
L20109 18754
L20127 18792
L20146 18810
L20184 18829
L20259 18829
L20296 18810
L20315 18792
L20334 18754
L20334 18660
L20315 18623
L20296 18604
L20259 18585
L20184 18585
L20146 18604
L20127 18623
L20109 18660
" />
<path d="M20811 19679
L21111 19679
" />
<path d="M21279 19473
L21298 19454
L21336 19435
L21429 19435
L21467 19454
L21486 19473
L21504 19510
L21504 19548
L21486 19604
L21261 19829
L21504 19829
" />
<path d="M21842 19567
L21842 19829
" />
<path d="M21748 19417
L21654 19698
L21898 19698
" />
<path d="M21992 19435
L22123 19829
L22254 19435
" />
</g>
<g style="fill:#000000; fill-opacity:0.0; 
stroke:#000000; stroke-width:98.4252; stroke-opacity:1; 
stroke-linecap:round; stroke-linejoin:round;">
<path d="M6492 16223
L6492 16542
L6511 16579
L6530 16598
L6567 16617
L6642 16617
L6680 16598
L6699 16579
L6717 16542
L6717 16223
" />
<path d="M7111 16617
L6886 16617
" />
<path d="M6999 16617
L6999 16223
L6961 16279
L6924 16317
L6886 16335
" />
</g>
<g style="fill:#000000; fill-opacity:0.0; 
stroke:#000000; stroke-width:59.0551; stroke-opacity:1; 
stroke-linecap:round; stroke-linejoin:round;">
<path d="M2482 3329
L2482 2935
L2576 2935
L2632 2954
L2669 2992
L2688 3029
L2707 3104
L2707 3160
L2688 3235
L2669 3273
L2632 3310
L2576 3329
L2482 3329
" />
<path d="M3082 3329
L2857 3329
" />
<path d="M2969 3329
L2969 2935
L2932 2992
L2894 3029
L2857 3048
" />
<path d="M6822 8393
L6822 8786
" />
<path d="M6569 8393
L6569 8702
L6597 8758
L6654 8786
L6738 8786
L6794 8758
L6822 8730
" />
<path d="M7104 8786
L7104 8196
L7329 8196
L7385 8224
L7413 8252
L7441 8308
L7441 8393
L7413 8449
L7385 8477
L7329 8505
L7104 8505
" />
<path d="M8004 8786
L7666 8786
" />
<path d="M7835 8786
L7835 8196
L7779 8280
L7722 8336
L7666 8365
" />
<path d="M4629 19618
L4910 19618
" />
<path d="M4573 19786
L4770 19196
L4966 19786
" />
<path d="M5163 19786
L5163 19393
" />
<path d="M5163 19505
L5191 19449
L5220 19421
L5276 19393
L5332 19393
" />
<path d="M5782 19786
L5782 19196
" />
<path d="M5782 19758
L5726 19786
L5613 19786
L5557 19758
L5529 19730
L5501 19674
L5501 19505
L5529 19449
L5557 19421
L5613 19393
L5726 19393
L5782 19421
" />
<path d="M6316 19393
L6316 19786
" />
<path d="M6063 19393
L6063 19702
L6091 19758
L6148 19786
L6232 19786
L6288 19758
L6316 19730
" />
<path d="M6597 19786
L6597 19393
" />
<path d="M6597 19196
L6569 19224
L6597 19252
L6626 19224
L6597 19196
L6597 19252
" />
<path d="M6879 19393
L6879 19786
" />
<path d="M6879 19449
L6907 19421
L6963 19393
L7047 19393
L7104 19421
L7132 19477
L7132 19786
" />
<path d="M7497 19786
L7441 19758
L7413 19730
L7385 19674
L7385 19505
L7413 19449
L7441 19421
L7497 19393
L7582 19393
L7638 19421
L7666 19449
L7694 19505
L7694 19674
L7666 19730
L7638 19758
L7582 19786
L7497 19786
" />
<path d="M7807 19843
L8257 19843
" />
<path d="M8397 19786
L8397 19196
L8594 19618
L8791 19196
L8791 19786
" />
<path d="M9072 19786
L9072 19393
" />
<path d="M9072 19196
L9044 19224
L9072 19252
L9100 19224
L9072 19196
L9072 19252
" />
<path d="M9353 19393
L9353 19786
" />
<path d="M9353 19449
L9382 19421
L9438 19393
L9522 19393
L9578 19421
L9606 19477
L9606 19786
" />
<path d="M9888 19786
L9888 19393
" />
<path d="M9888 19196
L9860 19224
L9888 19252
L9916 19224
L9888 19196
L9888 19252
" />
<path d="M2292 17651
L2292 19651
" />
<path d="M2292 19651
L3292 19651
" />
<path d="M3292 19651
L3292 17651
" />
<path d="M3403 16541
L3403 17151
" />
<path d="M3292 17651
L2292 17651
" />
<path d="M2182 17151
L2182 16541
" />
<path d="M2182 16541
L3403 16541
" />
<path d="M4713 4106
L9831 4106
" />
<path d="M4715 4051
L9830 4051
" />
<path d="M4717 3996
L9828 3996
" />
<path d="M4721 3940
L9824 3940
" />
<path d="M4726 3885
L9819 3885
" />
<path d="M4731 3830
L9813 3830
" />
<path d="M4739 3775
L9806 3775
" />
<path d="M4747 3720
L9798 3720
" />
<path d="M4757 3665
L9788 3665
" />
<path d="M4768 3610
L9777 3610
" />
<path d="M4780 3555
L9765 3555
" />
<path d="M4794 3499
L7089 3499
" />
<path d="M7456 3499
L9751 3499
" />
<path d="M4808 3444
L7010 3444
" />
<path d="M7535 3444
L9737 3444
" />
<path d="M4824 3389
L6959 3389
" />
<path d="M7586 3389
L9720 3389
" />
<path d="M4842 3334
L6924 3334
" />
<path d="M7621 3334
L9703 3334
" />
<path d="M4861 3279
L6900 3279
" />
<path d="M7645 3279
L9684 3279
" />
<path d="M4881 3224
L6885 3224
" />
<path d="M7659 3224
L9664 3224
" />
<path d="M4903 3169
L6879 3169
" />
<path d="M7666 3169
L9642 3169
" />
<path d="M4926 3114
L6881 3114
" />
<path d="M7664 3114
L9619 3114
" />
<path d="M4951 3059
L6890 3059
" />
<path d="M7655 3059
L9594 3059
" />
<path d="M4977 3003
L6907 3003
" />
<path d="M7637 3003
L9568 3003
" />
<path d="M5005 2948
L6935 2948
" />
<path d="M7610 2948
L9539 2948
" />
<path d="M5035 2893
L6975 2893
" />
<path d="M7570 2893
L9510 2893
" />
<path d="M5067 2838
L7033 2838
" />
<path d="M7511 2838
L9478 2838
" />
<path d="M5100 2783
L7133 2783
" />
<path d="M7412 2783
L9445 2783
" />
<path d="M5135 2728
L9410 2728
" />
<path d="M5172 2673
L9372 2673
" />
<path d="M5212 2618
L9333 2618
" />
<path d="M5254 2562
L9291 2562
" />
<path d="M5298 2507
L9247 2507
" />
<path d="M5345 2452
L9200 2452
" />
<path d="M5394 2397
L9151 2397
" />
<path d="M5447 2342
L9098 2342
" />
<path d="M5503 2287
L9042 2287
" />
<path d="M5562 2232
L8983 2232
" />
<path d="M5626 2177
L8919 2177
" />
<path d="M5693 2122
L8852 2122
" />
<path d="M5766 2066
L8779 2066
" />
<path d="M5845 2011
L8700 2011
" />
<path d="M5931 1956
L8614 1956
" />
<path d="M6025 1901
L8520 1901
" />
<path d="M6129 1846
L8416 1846
" />
<path d="M6247 1791
L8298 1791
" />
<path d="M6383 1736
L8162 1736
" />
<path d="M6549 1681
L7996 1681
" />
<path d="M6773 1625
L7772 1625
" />
<circle cx="7272.91" cy="3151.55" r="393.701" /> 
<circle cx="7272.91" cy="4135.8" r="2573.82" /> 
<path d="M17672 17650
L18222 17650
" />
<path d="M15922 17650
L15322 17650
" />
<path d="M16072 17350
L16072 17950
" />
<path d="M15972 17350
L15972 17950
" />
<path d="M15872 17650
L15872 17950
" />
<path d="M15872 17950
L17672 17950
" />
<path d="M17672 17950
L17672 17350
" />
<path d="M17672 17350
L15872 17350
" />
<path d="M15872 17350
L15872 17650
" />
<path d="M2292 8651
L2292 10651
" />
<path d="M2292 10651
L3292 10651
" />
<path d="M3292 10651
L3292 8651
" />
<path d="M3403 7541
L3403 8151
" />
<path d="M3292 8651
L2292 8651
" />
<path d="M2182 8151
L2182 7541
" />
<path d="M2182 7541
L3403 7541
" />
<path d="M2292 13151
L2292 15151
" />
<path d="M2292 15151
L3292 15151
" />
<path d="M3292 15151
L3292 13151
" />
<path d="M3403 12041
L3403 12651
" />
<path d="M3292 13151
L2292 13151
" />
<path d="M2182 12651
L2182 12041
" />
<path d="M2182 12041
L3403 12041
" />
<path d="M13863 2625
L13253 2625
" />
<path d="M13253 1405
L13863 1405
" />
<path d="M13863 1405
L13863 2625
" />
<path d="M12753 1515
L12753 2515
" />
<path d="M20635 2625
L20024 2625
" />
<path d="M20024 1405
L20635 1405
" />
<path d="M20635 1405
L20635 2625
" />
<path d="M19524 1515
L19524 2515
" />
<path d="M13863 18232
L13253 18232
" />
<path d="M13253 17011
L13863 17011
" />
<path d="M13863 17011
L13863 18232
" />
<path d="M12753 17122
L12753 18122
" />
<path d="M13863 20261
L13253 20261
" />
<path d="M13253 19041
L13863 19041
" />
<path d="M13863 19041
L13863 20261
" />
<path d="M12753 19151
L12753 20151
" />
<path d="M20635 18232
L20024 18232
" />
<path d="M20024 17011
L20635 17011
" />
<path d="M20635 17011
L20635 18232
" />
<path d="M19524 17122
L19524 18122
" />
<path d="M20635 20261
L20024 20261
" />
<path d="M20024 19041
L20635 19041
" />
<path d="M20635 19041
L20635 20261
" />
<path d="M19524 19151
L19524 20151
" />
</g>
<g style="fill:#000000; fill-opacity:0.0; 
stroke:#000000; stroke-width:150; stroke-opacity:1; 
stroke-linecap:round; stroke-linejoin:round;">
<path d="M5992.93 16851.5 A1131.37 1131.37 0.0 0 0 7592.93 16851.5 " />
<path d="M5392 15251
L5392 16051
" />
<path d="M5392 16051
L5592 16851
" />
<path d="M5592 16851
L7992 16851
" />
<path d="M7992 16851
L8192 16051
" />
<path d="M8192 16051
L8192 15251
" />
<path d="M8192 15251
L5392 15251
" />
</g>
<g style="fill:#000000; fill-opacity:0.0; 
stroke:#000000; stroke-width:59.0551; stroke-opacity:1; 
stroke-linecap:round; stroke-linejoin:round;">
<path d="M3292 4651
L3292 5651
" />
<path d="M3403 3541
L3403 4151
" />
<path d="M3292 4651
L2292 4651
" />
<path d="M2182 4151
L2182 3541
" />
<path d="M2182 3541
L3403 3541
" />
<path d="M2292 4651
L2292 5651
" />
<path d="M2292 5651
L3292 5651
" />
</g>
<g style="fill:#000000; fill-opacity:0.0; 
stroke:#000000; stroke-width:0; stroke-opacity:1; 
stroke-linecap:round; stroke-linejoin:round;">
</g>
<g style="fill:#000000; fill-opacity:1.0; 
stroke:#000000; stroke-width:0; stroke-opacity:1; 
stroke-linecap:round; stroke-linejoin:round;">
<polyline style="fill-rule:evenodd;"
points="2392,17491
2392,16811
3192,16811
3192,17491
2392,17491
" /> 
</g>
<g style="fill:#000000; fill-opacity:1.0; 
stroke:#000000; stroke-width:680; stroke-opacity:1; 
stroke-linecap:round; stroke-linejoin:round;">
</g>
<g style="fill:#000000; fill-opacity:0.0; 
stroke:#000000; stroke-width:680; stroke-opacity:1; 
stroke-linecap:round; stroke-linejoin:round;">
<path d="M2732 18151
L2852 18151
" />
<path d="M2732 19151
L2852 19151
" />
</g>
<g style="fill:#000000; fill-opacity:0.0; 
stroke:#000000; stroke-width:0; stroke-opacity:1; 
stroke-linecap:round; stroke-linejoin:round;">
</g>
<g style="fill:#000000; fill-opacity:1.0; 
stroke:#000000; stroke-width:0; stroke-opacity:1; 
stroke-linecap:round; stroke-linejoin:round;">
<polyline style="fill-rule:evenodd;"
points="7528,5375
7017,5375
7017,4864
7528,4864
7528,5375
" /> 
<circle cx="7272.91" cy="3151.55" r="255.906" /> 
</g>
<g style="fill:#000000; fill-opacity:1.0; 
stroke:#000000; stroke-width:39.3701; stroke-opacity:1; 
stroke-linecap:round; stroke-linejoin:round;">
</g>
<g style="fill:#000000; fill-opacity:1.0; 
stroke:#000000; stroke-width:0; stroke-opacity:1; 
stroke-linecap:round; stroke-linejoin:round;">
<circle cx="18772.9" cy="17650.5" r="334.5" /> 
</g>
<g style="fill:#000000; fill-opacity:1.0; 
stroke:#000000; stroke-width:39.3701; stroke-opacity:1; 
stroke-linecap:round; stroke-linejoin:round;">
</g>
<g style="fill:#000000; fill-opacity:1.0; 
stroke:#000000; stroke-width:0; stroke-opacity:1; 
stroke-linecap:round; stroke-linejoin:round;">
<polyline style="fill-rule:evenodd;"
points="15107,17316
15107,17985
14438,17985
14438,17316
15107,17316
" /> 
<polyline style="fill-rule:evenodd;"
points="2392,8491
2392,7811
3192,7811
3192,8491
2392,8491
" /> 
</g>
<g style="fill:#000000; fill-opacity:1.0; 
stroke:#000000; stroke-width:680; stroke-opacity:1; 
stroke-linecap:round; stroke-linejoin:round;">
</g>
<g style="fill:#000000; fill-opacity:0.0; 
stroke:#000000; stroke-width:680; stroke-opacity:1; 
stroke-linecap:round; stroke-linejoin:round;">
<path d="M2732 9151
L2852 9151
" />
<path d="M2732 10151
L2852 10151
" />
</g>
<g style="fill:#000000; fill-opacity:0.0; 
stroke:#000000; stroke-width:0; stroke-opacity:1; 
stroke-linecap:round; stroke-linejoin:round;">
</g>
<g style="fill:#000000; fill-opacity:1.0; 
stroke:#000000; stroke-width:0; stroke-opacity:1; 
stroke-linecap:round; stroke-linejoin:round;">
<polyline style="fill-rule:evenodd;"
points="2392,12991
2392,12311
3192,12311
3192,12991
2392,12991
" /> 
</g>
<g style="fill:#000000; fill-opacity:1.0; 
stroke:#000000; stroke-width:680; stroke-opacity:1; 
stroke-linecap:round; stroke-linejoin:round;">
</g>
<g style="fill:#000000; fill-opacity:0.0; 
stroke:#000000; stroke-width:680; stroke-opacity:1; 
stroke-linecap:round; stroke-linejoin:round;">
<path d="M2732 13651
L2852 13651
" />
<path d="M2732 14651
L2852 14651
" />
</g>
<g style="fill:#000000; fill-opacity:0.0; 
stroke:#000000; stroke-width:0; stroke-opacity:1; 
stroke-linecap:round; stroke-linejoin:round;">
</g>
<g style="fill:#000000; fill-opacity:1.0; 
stroke:#000000; stroke-width:0; stroke-opacity:1; 
stroke-linecap:round; stroke-linejoin:round;">
<polyline style="fill-rule:evenodd;"
points="12813,1575
13693,1575
13693,2455
12813,2455
12813,1575
" /> 
<polyline style="fill-rule:evenodd;"
points="19584,1575
20464,1575
20464,2455
19584,2455
19584,1575
" /> 
<polyline style="fill-rule:evenodd;"
points="12813,17182
13693,17182
13693,18062
12813,18062
12813,17182
" /> 
<polyline style="fill-rule:evenodd;"
points="12813,19211
13693,19211
13693,20091
12813,20091
12813,19211
" /> 
<polyline style="fill-rule:evenodd;"
points="19584,17182
20464,17182
20464,18062
19584,18062
19584,17182
" /> 
<polyline style="fill-rule:evenodd;"
points="19584,19211
20464,19211
20464,20091
19584,20091
19584,19211
" /> 
<circle cx="5792.93" cy="15651.5" r="300" /> 
</g>
<g style="fill:#000000; fill-opacity:1.0; 
stroke:#000000; stroke-width:39.3701; stroke-opacity:1; 
stroke-linecap:round; stroke-linejoin:round;">
</g>
<g style="fill:#000000; fill-opacity:1.0; 
stroke:#000000; stroke-width:0; stroke-opacity:1; 
stroke-linecap:round; stroke-linejoin:round;">
<circle cx="7792.93" cy="15651.5" r="300" /> 
</g>
<g style="fill:#000000; fill-opacity:1.0; 
stroke:#000000; stroke-width:39.3701; stroke-opacity:1; 
stroke-linecap:round; stroke-linejoin:round;">
</g>
<g style="fill:#000000; fill-opacity:1.0; 
stroke:#000000; stroke-width:0; stroke-opacity:1; 
stroke-linecap:round; stroke-linejoin:round;">
<circle cx="6792.93" cy="15651.5" r="300" /> 
</g>
<g style="fill:#000000; fill-opacity:1.0; 
stroke:#000000; stroke-width:39.3701; stroke-opacity:1; 
stroke-linecap:round; stroke-linejoin:round;">
</g>
<g style="fill:#000000; fill-opacity:1.0; 
stroke:#000000; stroke-width:0; stroke-opacity:1; 
stroke-linecap:round; stroke-linejoin:round;">
<polyline style="fill-rule:evenodd;"
points="2392,4551
2392,3751
3192,3751
3192,4551
2392,4551
" /> 
</g>
<g style="fill:#000000; fill-opacity:1.0; 
stroke:#000000; stroke-width:800; stroke-opacity:1; 
stroke-linecap:round; stroke-linejoin:round;">
</g>
<g style="fill:#000000; fill-opacity:0.0; 
stroke:#000000; stroke-width:800; stroke-opacity:1; 
stroke-linecap:round; stroke-linejoin:round;">
<path d="M2792 5151
L2792 5151
" />
</g>
<g style="fill:#000000; fill-opacity:1.0; 
stroke:#000000; stroke-width:0; stroke-opacity:1; 
stroke-linecap:round; stroke-linejoin:round;">
<circle cx="4272.91" cy="8019.69" r="300" /> 
</g>
<g style="fill:#000000; fill-opacity:1.0; 
stroke:#000000; stroke-width:39.3701; stroke-opacity:1; 
stroke-linecap:round; stroke-linejoin:round;">
</g>
<g style="fill:#000000; fill-opacity:1.0; 
stroke:#000000; stroke-width:0; stroke-opacity:1; 
stroke-linecap:round; stroke-linejoin:round;">
<circle cx="4272.91" cy="9019.69" r="300" /> 
</g>
<g style="fill:#000000; fill-opacity:1.0; 
stroke:#000000; stroke-width:39.3701; stroke-opacity:1; 
stroke-linecap:round; stroke-linejoin:round;">
</g>
<g style="fill:#000000; fill-opacity:1.0; 
stroke:#000000; stroke-width:0; stroke-opacity:1; 
stroke-linecap:round; stroke-linejoin:round;">
<circle cx="4272.91" cy="10019.7" r="300" /> 
</g>
<g style="fill:#000000; fill-opacity:1.0; 
stroke:#000000; stroke-width:39.3701; stroke-opacity:1; 
stroke-linecap:round; stroke-linejoin:round;">
</g>
<g style="fill:#000000; fill-opacity:1.0; 
stroke:#000000; stroke-width:0; stroke-opacity:1; 
stroke-linecap:round; stroke-linejoin:round;">
<circle cx="4272.91" cy="11019.7" r="300" /> 
</g>
<g style="fill:#000000; fill-opacity:1.0; 
stroke:#000000; stroke-width:39.3701; stroke-opacity:1; 
stroke-linecap:round; stroke-linejoin:round;">
</g>
<g style="fill:#000000; fill-opacity:1.0; 
stroke:#000000; stroke-width:0; stroke-opacity:1; 
stroke-linecap:round; stroke-linejoin:round;">
<circle cx="4272.91" cy="12019.7" r="300" /> 
</g>
<g style="fill:#000000; fill-opacity:1.0; 
stroke:#000000; stroke-width:39.3701; stroke-opacity:1; 
stroke-linecap:round; stroke-linejoin:round;">
</g>
<g style="fill:#000000; fill-opacity:1.0; 
stroke:#000000; stroke-width:0; stroke-opacity:1; 
stroke-linecap:round; stroke-linejoin:round;">
<circle cx="4272.91" cy="13019.7" r="300" /> 
</g>
<g style="fill:#000000; fill-opacity:1.0; 
stroke:#000000; stroke-width:39.3701; stroke-opacity:1; 
stroke-linecap:round; stroke-linejoin:round;">
</g>
<g style="fill:#000000; fill-opacity:1.0; 
stroke:#000000; stroke-width:0; stroke-opacity:1; 
stroke-linecap:round; stroke-linejoin:round;">
<circle cx="4272.91" cy="14019.7" r="300" /> 
</g>
<g style="fill:#000000; fill-opacity:1.0; 
stroke:#000000; stroke-width:39.3701; stroke-opacity:1; 
stroke-linecap:round; stroke-linejoin:round;">
</g>
<g style="fill:#000000; fill-opacity:1.0; 
stroke:#000000; stroke-width:0; stroke-opacity:1; 
stroke-linecap:round; stroke-linejoin:round;">
<circle cx="4272.91" cy="15019.7" r="300" /> 
</g>
<g style="fill:#000000; fill-opacity:1.0; 
stroke:#000000; stroke-width:39.3701; stroke-opacity:1; 
stroke-linecap:round; stroke-linejoin:round;">
</g>
<g style="fill:#000000; fill-opacity:1.0; 
stroke:#000000; stroke-width:0; stroke-opacity:1; 
stroke-linecap:round; stroke-linejoin:round;">
<circle cx="4272.91" cy="16019.7" r="300" /> 
</g>
<g style="fill:#000000; fill-opacity:1.0; 
stroke:#000000; stroke-width:39.3701; stroke-opacity:1; 
stroke-linecap:round; stroke-linejoin:round;">
</g>
<g style="fill:#000000; fill-opacity:1.0; 
stroke:#000000; stroke-width:0; stroke-opacity:1; 
stroke-linecap:round; stroke-linejoin:round;">
<circle cx="4272.91" cy="17019.7" r="300" /> 
</g>
<g style="fill:#000000; fill-opacity:1.0; 
stroke:#000000; stroke-width:39.3701; stroke-opacity:1; 
stroke-linecap:round; stroke-linejoin:round;">
</g>
<g style="fill:#000000; fill-opacity:1.0; 
stroke:#000000; stroke-width:0; stroke-opacity:1; 
stroke-linecap:round; stroke-linejoin:round;">
<circle cx="4272.91" cy="18019.7" r="300" /> 
</g>
<g style="fill:#000000; fill-opacity:1.0; 
stroke:#000000; stroke-width:39.3701; stroke-opacity:1; 
stroke-linecap:round; stroke-linejoin:round;">
</g>
<g style="fill:#000000; fill-opacity:1.0; 
stroke:#000000; stroke-width:0; stroke-opacity:1; 
stroke-linecap:round; stroke-linejoin:round;">
<circle cx="4272.91" cy="19019.7" r="300" /> 
</g>
<g style="fill:#000000; fill-opacity:1.0; 
stroke:#000000; stroke-width:39.3701; stroke-opacity:1; 
stroke-linecap:round; stroke-linejoin:round;">
</g>
<g style="fill:#000000; fill-opacity:1.0; 
stroke:#000000; stroke-width:0; stroke-opacity:1; 
stroke-linecap:round; stroke-linejoin:round;">
<circle cx="10272.9" cy="8019.69" r="300" /> 
</g>
<g style="fill:#000000; fill-opacity:1.0; 
stroke:#000000; stroke-width:39.3701; stroke-opacity:1; 
stroke-linecap:round; stroke-linejoin:round;">
</g>
<g style="fill:#000000; fill-opacity:1.0; 
stroke:#000000; stroke-width:0; stroke-opacity:1; 
stroke-linecap:round; stroke-linejoin:round;">
<circle cx="10272.9" cy="9019.69" r="300" /> 
</g>
<g style="fill:#000000; fill-opacity:1.0; 
stroke:#000000; stroke-width:39.3701; stroke-opacity:1; 
stroke-linecap:round; stroke-linejoin:round;">
</g>
<g style="fill:#000000; fill-opacity:1.0; 
stroke:#000000; stroke-width:0; stroke-opacity:1; 
stroke-linecap:round; stroke-linejoin:round;">
<circle cx="10272.9" cy="10019.7" r="300" /> 
</g>
<g style="fill:#000000; fill-opacity:1.0; 
stroke:#000000; stroke-width:39.3701; stroke-opacity:1; 
stroke-linecap:round; stroke-linejoin:round;">
</g>
<g style="fill:#000000; fill-opacity:1.0; 
stroke:#000000; stroke-width:0; stroke-opacity:1; 
stroke-linecap:round; stroke-linejoin:round;">
<circle cx="10272.9" cy="11019.7" r="300" /> 
</g>
<g style="fill:#000000; fill-opacity:1.0; 
stroke:#000000; stroke-width:39.3701; stroke-opacity:1; 
stroke-linecap:round; stroke-linejoin:round;">
</g>
<g style="fill:#000000; fill-opacity:1.0; 
stroke:#000000; stroke-width:0; stroke-opacity:1; 
stroke-linecap:round; stroke-linejoin:round;">
<circle cx="10272.9" cy="12019.7" r="300" /> 
</g>
<g style="fill:#000000; fill-opacity:1.0; 
stroke:#000000; stroke-width:39.3701; stroke-opacity:1; 
stroke-linecap:round; stroke-linejoin:round;">
</g>
<g style="fill:#000000; fill-opacity:1.0; 
stroke:#000000; stroke-width:0; stroke-opacity:1; 
stroke-linecap:round; stroke-linejoin:round;">
<circle cx="10272.9" cy="13019.7" r="300" /> 
</g>
<g style="fill:#000000; fill-opacity:1.0; 
stroke:#000000; stroke-width:39.3701; stroke-opacity:1; 
stroke-linecap:round; stroke-linejoin:round;">
</g>
<g style="fill:#000000; fill-opacity:1.0; 
stroke:#000000; stroke-width:0; stroke-opacity:1; 
stroke-linecap:round; stroke-linejoin:round;">
<circle cx="10272.9" cy="14019.7" r="300" /> 
</g>
<g style="fill:#000000; fill-opacity:1.0; 
stroke:#000000; stroke-width:39.3701; stroke-opacity:1; 
stroke-linecap:round; stroke-linejoin:round;">
</g>
<g style="fill:#000000; fill-opacity:1.0; 
stroke:#000000; stroke-width:0; stroke-opacity:1; 
stroke-linecap:round; stroke-linejoin:round;">
<circle cx="10272.9" cy="15019.7" r="300" /> 
</g>
<g style="fill:#000000; fill-opacity:1.0; 
stroke:#000000; stroke-width:39.3701; stroke-opacity:1; 
stroke-linecap:round; stroke-linejoin:round;">
</g>
<g style="fill:#000000; fill-opacity:1.0; 
stroke:#000000; stroke-width:0; stroke-opacity:1; 
stroke-linecap:round; stroke-linejoin:round;">
<circle cx="10272.9" cy="16019.7" r="300" /> 
</g>
<g style="fill:#000000; fill-opacity:1.0; 
stroke:#000000; stroke-width:39.3701; stroke-opacity:1; 
stroke-linecap:round; stroke-linejoin:round;">
</g>
<g style="fill:#000000; fill-opacity:1.0; 
stroke:#000000; stroke-width:0; stroke-opacity:1; 
stroke-linecap:round; stroke-linejoin:round;">
<circle cx="10272.9" cy="17019.7" r="300" /> 
</g>
<g style="fill:#000000; fill-opacity:1.0; 
stroke:#000000; stroke-width:39.3701; stroke-opacity:1; 
stroke-linecap:round; stroke-linejoin:round;">
</g>
<g style="fill:#000000; fill-opacity:1.0; 
stroke:#000000; stroke-width:0; stroke-opacity:1; 
stroke-linecap:round; stroke-linejoin:round;">
<circle cx="10272.9" cy="18019.7" r="300" /> 
</g>
<g style="fill:#000000; fill-opacity:1.0; 
stroke:#000000; stroke-width:39.3701; stroke-opacity:1; 
stroke-linecap:round; stroke-linejoin:round;">
</g>
<g style="fill:#000000; fill-opacity:1.0; 
stroke:#000000; stroke-width:0; stroke-opacity:1; 
stroke-linecap:round; stroke-linejoin:round;">
<circle cx="10272.9" cy="19019.7" r="300" /> 
</g>
<g style="fill:#000000; fill-opacity:1.0; 
stroke:#000000; stroke-width:39.3701; stroke-opacity:1; 
stroke-linecap:round; stroke-linejoin:round;">
</g>
<g style="fill:#000000; fill-opacity:1.0; 
stroke:#000000; stroke-width:0; stroke-opacity:1; 
stroke-linecap:round; stroke-linejoin:round;">
<circle cx="9122.91" cy="11469.7" r="295.276" /> 
</g>
<g style="fill:#000000; fill-opacity:1.0; 
stroke:#000000; stroke-width:39.3701; stroke-opacity:1; 
stroke-linecap:round; stroke-linejoin:round;">
</g>
<g style="fill:#000000; fill-opacity:1.0; 
stroke:#000000; stroke-width:0; stroke-opacity:1; 
stroke-linecap:round; stroke-linejoin:round;">
<circle cx="9122.91" cy="12469.7" r="295.276" /> 
</g>
<g style="fill:#000000; fill-opacity:1.0; 
stroke:#000000; stroke-width:39.3701; stroke-opacity:1; 
stroke-linecap:round; stroke-linejoin:round;">
</g>
<g style="fill:#000000; fill-opacity:1.0; 
stroke:#000000; stroke-width:0; stroke-opacity:1; 
stroke-linecap:round; stroke-linejoin:round;">
<circle cx="9122.91" cy="15569.7" r="295.276" /> 
</g>
<g style="fill:#000000; fill-opacity:1.0; 
stroke:#000000; stroke-width:39.3701; stroke-opacity:1; 
stroke-linecap:round; stroke-linejoin:round;">
</g>
<g style="fill:#000000; fill-opacity:1.0; 
stroke:#000000; stroke-width:0; stroke-opacity:1; 
stroke-linecap:round; stroke-linejoin:round;">
<circle cx="9122.91" cy="16569.7" r="295.276" /> 
</g>
<g style="fill:#000000; fill-opacity:1.0; 
stroke:#000000; stroke-width:39.3701; stroke-opacity:1; 
stroke-linecap:round; stroke-linejoin:round;">
</g> 
</svg>
